<svg version="1.1" viewBox="0 0 576 512" xmlns="http://www.w3.org/2000/svg" xmlns:xlink="http://www.w3.org/1999/xlink" overflow="hidden"><style>
.MsftOfcThm_Background1_lumMod_95_Fill {
 fill:#F2F2F2; 
}
</style>
<path d=" M 527.9 224 L 480 224 L 480 176 C 480 149.5 458.5 128 432 128 L 272 128 L 208 64 L 48 64 C 21.5 64 0 85.5 0 112 L 0 400 C 0 426.5 21.5 448 48 448 L 448 448 C 464.5 448 479.9 439.5 488.7 425.4 L 568.6 297.4 C 588.6 265.5 565.6 224 527.9 224 Z M 48 118 C 48 114.7 50.7 112 54 112 L 188.1 112 L 252.1 176 L 426 176 C 429.3 176 432 178.7 432 182 L 432 224 L 152 224 C 135.2 224 119.6 232.8 110.9 247.2 L 48 351.4 Z M 448 400 L 72 400 L 149.2 272 L 528 272 Z" stroke="none" stroke-width="1" stroke-dasharray="" stroke-dashoffset="1" fill="#F2F2F2" fill-opacity="1"/></svg>