<svg version="1.1" viewBox="0 0 576 512" xmlns="http://www.w3.org/2000/svg" xmlns:xlink="http://www.w3.org/1999/xlink" overflow="hidden"><style>
.MsftOfcThm_Background1_lumMod_95_Fill {
 fill:#F2F2F2; 
}
</style>
<path d=" M 528 64 L 48 64 C 21.49 64 0 85.49 0 112 L 0 400 C 0 426.51 21.49 448 48 448 L 528 448 C 554.51 448 576 426.51 576 400 L 576 112 C 576 85.49 554.51 64 528 64 Z M 536 400 C 536 404.411 532.411 408 528 408 L 48 408 C 43.589 408 40 404.411 40 400 L 40 112 C 40 107.589 43.589 104 48 104 L 528 104 C 532.411 104 536 107.589 536 112 L 536 400 Z M 170 270 L 170 242 C 170 235.373 164.627 230 158 230 L 130 230 C 123.373 230 118 235.373 118 242 L 118 270 C 118 276.627 123.373 282 130 282 L 158 282 C 164.627 282 170 276.627 170 270 Z M 266 270 L 266 242 C 266 235.373 260.627 230 254 230 L 226 230 C 219.373 230 214 235.373 214 242 L 214 270 C 214 276.627 219.373 282 226 282 L 254 282 C 260.627 282 266 276.627 266 270 Z M 362 270 L 362 242 C 362 235.373 356.627 230 350 230 L 322 230 C 315.373 230 310 235.373 310 242 L 310 270 C 310 276.627 315.373 282 322 282 L 350 282 C 356.627 282 362 276.627 362 270 Z M 458 270 L 458 242 C 458 235.373 452.627 230 446 230 L 418 230 C 411.373 230 406 235.373 406 242 L 406 270 C 406 276.627 411.373 282 418 282 L 446 282 C 452.627 282 458 276.627 458 270 Z M 122 352 L 122 324 C 122 317.373 116.627 312 110 312 L 82 312 C 75.373 312 70 317.373 70 324 L 70 352 C 70 358.627 75.373 364 82 364 L 110 364 C 116.627 364 122 358.627 122 352 Z M 506 352 L 506 324 C 506 317.373 500.627 312 494 312 L 466 312 C 459.373 312 454 317.373 454 324 L 454 352 C 454 358.627 459.373 364 466 364 L 494 364 C 500.627 364 506 358.627 506 352 Z M 122 188 L 122 160 C 122 153.373 116.627 148 110 148 L 82 148 C 75.373 148 70 153.373 70 160 L 70 188 C 70 194.627 75.373 200 82 200 L 110 200 C 116.627 200 122 194.627 122 188 Z M 218 188 L 218 160 C 218 153.373 212.627 148 206 148 L 178 148 C 171.373 148 166 153.373 166 160 L 166 188 C 166 194.627 171.373 200 178 200 L 206 200 C 212.627 200 218 194.627 218 188 Z M 314 188 L 314 160 C 314 153.373 308.627 148 302 148 L 274 148 C 267.373 148 262 153.373 262 160 L 262 188 C 262 194.627 267.373 200 274 200 L 302 200 C 308.627 200 314 194.627 314 188 Z M 410 188 L 410 160 C 410 153.373 404.627 148 398 148 L 370 148 C 363.373 148 358 153.373 358 160 L 358 188 C 358 194.627 363.373 200 370 200 L 398 200 C 404.627 200 410 194.627 410 188 Z M 506 188 L 506 160 C 506 153.373 500.627 148 494 148 L 466 148 C 459.373 148 454 153.373 454 160 L 454 188 C 454 194.627 459.373 200 466 200 L 494 200 C 500.627 200 506 194.627 506 188 Z M 408 346 L 408 330 C 408 323.373 402.627 318 396 318 L 180 318 C 173.373 318 168 323.373 168 330 L 168 346 C 168 352.627 173.373 358 180 358 L 396 358 C 402.627 358 408 352.627 408 346 Z" stroke="none" stroke-width="1" stroke-dasharray="" stroke-dashoffset="1" fill="#F2F2F2" fill-opacity="1"/></svg>