<svg version="1.1" viewBox="0 0 512 512" xmlns="http://www.w3.org/2000/svg" xmlns:xlink="http://www.w3.org/1999/xlink" overflow="hidden"><style>
.MsftOfcThm_Background1_lumMod_95_Fill {
 fill:#F2F2F2; 
}
</style>
<path d=" M 224 96 L 240 64 L 272 48 L 240 32 L 224 0 L 208 32 L 176 48 L 208 64 L 224 96 Z M 80 160 L 106.66 106.67 L 160 80 L 106.66 53.33 L 80 0 L 53.34 53.33 L 0 80 L 53.34 106.67 L 80 160 Z M 432 288 L 405.34 341.33 L 352 368 L 405.34 394.67 L 432 448 L 458.66 394.67 L 512 368 L 458.66 341.33 L 432 288 Z M 502.62 94.23 L 417.77 9.38 C 411.53 3.12 403.34 0 395.15 0 C 386.96 0 378.77 3.12 372.52 9.38 L 9.38 372.52 C -3.12 385.02 -3.12 405.28 9.38 417.77 L 94.23 502.62 C 100.48 508.87 108.67 511.99 116.85 511.99 C 125.04 511.99 133.23 508.87 139.48 502.62 L 502.62 139.47 C 515.12 126.99 515.12 106.72 502.62 94.23 Z M 359.45 203.46 L 308.54 152.55 L 395.14 65.95 L 446.05 116.86 L 359.45 203.46 Z" stroke="none" stroke-width="1" stroke-dasharray="" stroke-dashoffset="1" fill="#F2F2F2" fill-opacity="1"/></svg>