<svg version="1.1" viewBox="0 0 512 512" xmlns="http://www.w3.org/2000/svg" xmlns:xlink="http://www.w3.org/1999/xlink" overflow="hidden"><style>
.MsftOfcThm_Background1_lumMod_95_Fill {
 fill:#F2F2F2; 
}
</style>
<path d=" M 371.7 238 L 195.7 131 C 179.9 122.2 160 133.5 160 152 L 160 360 C 160 378.4 179.8 389.8 195.7 381 L 371.7 280 C 388.1 270.9 388.1 247.2 371.7 238 Z M 504 256 C 504 119 393 8 256 8 C 119 8 8 119 8 256 C 8 393 119 504 256 504 C 393 504 504 393 504 256 Z M 56 256 C 56 145.5 145.5 56 256 56 C 366.5 56 456 145.5 456 256 C 456 366.5 366.5 456 256 456 C 145.5 456 56 366.5 56 256 Z" stroke="none" stroke-width="1" stroke-dasharray="" stroke-dashoffset="1" fill="#F2F2F2" fill-opacity="1"/></svg>