<svg version="1.1" viewBox="0 0 512 512" xmlns="http://www.w3.org/2000/svg" xmlns:xlink="http://www.w3.org/1999/xlink" overflow="hidden"><style>
.MsftOfcThm_Background1_lumMod_95_Fill {
 fill:#F2F2F2; 
}
</style>
<path d=" M 256.455 8 C 322.724 8.119 382.892 34.233 427.314 76.685 L 463.029 40.97 C 478.149 25.851 504 36.559 504 57.941 L 504 192 C 504 205.255 493.255 216 480 216 L 345.941 216 C 324.559 216 313.851 190.149 328.97 175.029 L 370.72 133.279 C 339.856 104.38 299.919 88.372 257.49 88.006 C 165.092 87.208 87.207 161.983 88.006 257.448 C 88.764 348.009 162.184 424 256 424 C 297.127 424 335.997 409.322 366.629 382.444 C 371.372 378.283 378.535 378.536 382.997 382.997 L 422.659 422.659 C 427.531 427.531 427.29 435.474 422.177 440.092 C 378.202 479.813 319.926 504 256 504 C 119.034 504 8.001 392.967 8 256.002 C 7.999 119.193 119.646 7.755 256.455 8 Z" stroke="none" stroke-width="1" stroke-dasharray="" stroke-dashoffset="1" fill="#F2F2F2" fill-opacity="1"/></svg>