<svg version="1.1" viewBox="0 0 512 512" xmlns="http://www.w3.org/2000/svg" xmlns:xlink="http://www.w3.org/1999/xlink" overflow="hidden"><style>
.MsftOfcThm_Background2_Fill {
 fill:#E7E6E6; 
}
</style>
<path d=" M 255.9 120.9 L 265 105.2 C 270.6 95.4 283.1 92.1 292.9 97.7 C 302.7 103.3 306 115.8 300.4 125.6 L 212.9 277.1 L 276.2 277.1 C 296.7 277.1 308.2 301.2 299.3 317.9 L 113.8 317.9 C 102.5 317.9 93.4 308.8 93.4 297.5 C 93.4 286.2 102.5 277.1 113.8 277.1 L 165.8 277.1 L 232.4 161.7 L 211.6 125.6 C 206 115.8 209.3 103.4 219.1 97.7 C 228.9 92.1 241.3 95.4 247 105.2 L 255.9 120.9 Z M 177.2 338.9 L 157.6 372.9 C 152 382.7 139.5 386 129.7 380.4 C 119.9 374.8 116.6 362.3 122.2 352.5 L 136.8 327.3 C 153.2 322.2 166.6 326.1 177.2 338.9 Z M 346.1 277.2 L 399.2 277.2 C 410.5 277.2 419.6 286.3 419.6 297.6 C 419.6 308.9 410.5 318 399.2 318 L 369.7 318 L 389.6 352.5 C 395.2 362.3 391.9 374.7 382.1 380.4 C 372.3 386 359.9 382.7 354.2 372.9 C 320.7 314.8 295.5 271.3 278.8 242.3 C 261.7 212.8 273.9 183.2 286 173.2 C 299.4 196.2 319.4 230.9 346.1 277.2 Z M 256 8 C 119 8 8 119 8 256 C 8 393 119 504 256 504 C 393 504 504 393 504 256 C 504 119 393 8 256 8 Z M 472 256 C 472 374.7 375.9 472 256 472 C 137.3 472 40 375.9 40 256 C 40 137.3 136.1 40 256 40 C 374.7 40 472 136.1 472 256 Z" stroke="none" stroke-width="1" stroke-dasharray="" stroke-dashoffset="1" fill="#E7E6E6" fill-opacity="1"/></svg>